<svg width="200" height="46" viewBox="0 0 200 46" fill="none" xmlns="http://www.w3.org/2000/svg">
<g clip-path="url(#clip0_704_278)">
<path d="M26.3933 16.9173C25.2573 18.6066 23.456 19.3866 22.3653 18.6533C21.276 17.9213 21.312 15.956 22.448 14.2666C23.584 12.576 25.3853 11.7973 26.476 12.5293C27.568 13.2626 27.5293 15.224 26.3933 16.9173ZM22.82 25.3346C21.0813 25.8893 19.5107 23.9613 17.6013 24.0693C17.596 24.0693 17.5907 24.0693 17.5867 24.072H17.568C15.656 24.1066 14.2347 26.1453 12.4613 25.7226C10.6827 25.3026 10.0467 22.98 12.812 20.168C14.6987 18.2493 15.1227 16.2053 17.284 16.0653C19.4507 16.0413 20.0267 18.0493 22.052 19.82C25.0213 22.4186 24.56 24.7826 22.82 25.3346ZM8.26266 17.5986C7.00532 15.996 6.81999 14.0413 7.85199 13.228C8.88532 12.4173 10.7427 13.0573 12 14.6586C13.26 16.26 13.4453 18.2146 12.412 19.0266C11.38 19.8373 9.52399 19.1973 8.26266 17.5986ZM13.232 7.07334C14.5867 6.77867 16.052 8.244 16.5107 10.344C16.964 12.4426 16.2373 14.3813 14.8827 14.6733C13.5293 14.968 12.0653 13.5053 11.6093 11.404C11.1533 9.30933 11.88 7.368 13.232 7.07334ZM17.6307 10.3C17.9267 8.17334 19.2787 6.60667 20.6507 6.79467C22.0213 6.98667 22.8907 8.86667 22.5933 10.9946C22.3 13.12 20.9453 14.6906 19.576 14.5C18.2027 14.308 17.3333 12.428 17.6307 10.3ZM34.4453 4.352C34.4453 4.352 32.3653 3.73734 26.42 2.208C20.128 0.582667 17.2293 0 17.2293 0C17.2293 0 14.328 0.582667 8.03332 2.208C2.09065 3.73734 0.0106545 4.352 0.0106545 4.352C0.0106545 4.352 -0.297345 10.4786 2.39865 21.5693C4.57599 30.5226 12.696 35.48 17.2293 38.284C21.7627 35.48 29.88 30.5226 32.0573 21.5693C34.7533 10.4786 34.4453 4.352 34.4453 4.352Z" fill="#FEAC1B"/>
<path d="M48.4115 16.1026C50.1902 16.1026 51.2289 15.0399 51.2289 13.6546V13.6079C51.2289 12.0159 50.1196 11.1586 48.3436 11.1586H45.5942V16.1026H48.4115ZM42.0396 9.7279C42.0396 8.73457 42.8263 7.9519 43.8156 7.9519H48.6436C52.4996 7.9519 54.8302 10.2373 54.8302 13.5373V13.5839C54.8302 17.3253 51.9223 19.2653 48.2969 19.2653H45.5942V22.4733C45.5942 23.4666 44.8103 24.2506 43.8156 24.2506C42.8263 24.2506 42.0396 23.4666 42.0396 22.4733V9.7279Z" fill="#FEAC1B"/>
<path d="M63.5574 17.3475L61.3174 12.0155L59.0788 17.3475H63.5574ZM53.5601 21.8275L59.1934 9.10478C59.5854 8.22744 60.3027 7.69678 61.2733 7.69678H61.4788C62.4508 7.69678 63.1427 8.22744 63.536 9.10478L69.1694 21.8275C69.2841 22.0821 69.3547 22.3128 69.3547 22.5421C69.3547 23.4901 68.6148 24.2515 67.6694 24.2515C66.8361 24.2515 66.2841 23.7675 65.9614 23.0288L64.8748 20.4875H57.7627L56.6334 23.1448C56.3308 23.8368 55.7321 24.2515 54.9921 24.2515C54.0681 24.2515 53.3521 23.5115 53.3521 22.5901C53.3521 22.3355 53.4454 22.0821 53.5601 21.8275Z" fill="#FEAC1B"/>
<path d="M67.8987 10.2134C67.828 10.0067 67.76 9.75071 67.76 9.54404C67.76 8.55071 68.592 7.81071 69.584 7.81071C70.4147 7.81071 71.084 8.34404 71.316 9.08138L74.5267 18.988L77.7587 9.17338C78.0347 8.34404 78.6587 7.76538 79.56 7.76538H79.836C80.7373 7.76538 81.36 8.32138 81.636 9.17338L84.8707 18.988L88.0787 9.08138C88.3107 8.38938 88.912 7.81071 89.7867 7.81071C90.7587 7.81071 91.5413 8.55071 91.5413 9.52004C91.5413 9.72804 91.4747 10.0067 91.404 10.2134L86.8773 22.9147C86.5547 23.8134 85.8853 24.3667 85.032 24.3667H84.6613C83.808 24.3667 83.1613 23.8374 82.836 22.9147L79.6507 13.6547L76.464 22.9147C76.1413 23.8374 75.4947 24.3667 74.6413 24.3667H74.2707C73.4173 24.3667 72.748 23.8134 72.4253 22.9147L67.8987 10.2134Z" fill="#FEAC1B"/>
<path d="M121.401 15.8002C123.136 15.8002 124.128 14.8775 124.128 13.5135V13.4682C124.128 11.9442 123.065 11.1589 121.333 11.1589H117.8V15.8002H121.401ZM114.245 9.72693C114.245 8.73359 115.029 7.95093 116.024 7.95093H121.633C123.688 7.95093 125.281 8.52693 126.344 9.59093C127.245 10.4909 127.729 11.7602 127.729 13.2829V13.3295C127.729 15.8709 126.458 17.4402 124.497 18.2482L126.966 21.2495C127.313 21.6882 127.544 22.0575 127.544 22.6122C127.544 23.6069 126.713 24.2509 125.86 24.2509C125.049 24.2509 124.521 23.8589 124.104 23.3282L120.641 18.9402H117.8V22.4735C117.8 23.4669 117.016 24.2509 116.024 24.2509C115.029 24.2509 114.245 23.4669 114.245 22.4735V9.72693Z" fill="#FAFDF7"/>
<path d="M129.091 22.3355V9.72742C129.091 8.73409 129.875 7.95142 130.867 7.95142H139.828C140.706 7.95142 141.422 8.66742 141.422 9.54342C141.422 10.4195 140.706 11.1128 139.828 11.1128H132.622V14.3928H138.786C139.667 14.3928 140.383 15.1088 140.383 15.9848C140.383 16.8621 139.667 17.5555 138.786 17.5555H132.622V20.9488H139.943C140.82 20.9488 141.536 21.6661 141.536 22.5421C141.536 23.4195 140.82 24.1128 139.943 24.1128H130.867C129.875 24.1128 129.091 23.3275 129.091 22.3355Z" fill="#FAFDF7"/>
<path d="M142.388 22.4046C141.997 22.1286 141.721 21.6193 141.721 21.0659C141.721 20.1433 142.459 19.4273 143.383 19.4273C143.844 19.4273 144.167 19.5873 144.399 19.7513C145.623 20.6513 146.961 21.2033 148.531 21.2033C149.987 21.2033 150.864 20.6273 150.864 19.6806V19.6339C150.864 18.7339 150.309 18.2713 147.607 17.5793C144.352 16.7486 142.252 15.8473 142.252 12.6379V12.5926C142.252 9.65924 144.604 7.71924 147.909 7.71924C149.869 7.71924 151.579 8.22724 153.033 9.15258C153.427 9.38324 153.82 9.86858 153.82 10.5593C153.82 11.4833 153.079 12.1993 152.156 12.1993C151.809 12.1993 151.533 12.1046 151.255 11.9446C150.079 11.2526 148.971 10.8606 147.861 10.8606C146.5 10.8606 145.784 11.4833 145.784 12.2686V12.3166C145.784 13.3766 146.476 13.7233 149.271 14.4379C152.549 15.2926 154.396 16.4713 154.396 19.2873V19.3326C154.396 22.5433 151.948 24.3433 148.464 24.3433C146.339 24.3433 144.191 23.6979 142.388 22.4046Z" fill="#FAFDF7"/>
<path d="M92.9116 22.4046C92.5209 22.1286 92.2449 21.6193 92.2449 21.0659C92.2449 20.1433 92.9823 19.4273 93.9063 19.4273C94.3676 19.4273 94.6903 19.5873 94.9223 19.7513C96.1463 20.6513 97.4849 21.2033 99.0543 21.2033C100.51 21.2033 101.388 20.6273 101.388 19.6806V19.6339C101.388 18.7339 100.833 18.2713 98.1303 17.5793C94.8756 16.7486 92.7756 15.8473 92.7756 12.6379V12.5926C92.7756 9.65924 95.1276 7.71924 98.4329 7.71924C100.393 7.71924 102.102 8.22724 103.557 9.15258C103.95 9.38324 104.344 9.86858 104.344 10.5593C104.344 11.4833 103.602 12.1993 102.68 12.1993C102.333 12.1993 102.057 12.1046 101.778 11.9446C100.602 11.2526 99.4943 10.8606 98.3849 10.8606C97.0236 10.8606 96.3076 11.4833 96.3076 12.2686V12.3166C96.3076 13.3766 96.9996 13.7233 99.7943 14.4379C103.073 15.2926 104.92 16.4713 104.92 19.2873V19.3326C104.92 22.5433 102.472 24.3433 98.9876 24.3433C96.8623 24.3433 94.7143 23.6979 92.9116 22.4046Z" fill="#FEAC1B"/>
<path d="M154.927 16.079V16.0323C154.927 11.4363 158.391 7.67236 163.354 7.67236C165.779 7.67236 167.419 8.32169 168.758 9.31369C169.127 9.59102 169.451 10.0977 169.451 10.7216C169.451 11.691 168.667 12.4523 167.695 12.4523C167.211 12.4523 166.888 12.2697 166.632 12.1057C165.64 11.3683 164.602 10.9523 163.331 10.9523C160.607 10.9523 158.643 13.2163 158.643 15.9856V16.0323C158.643 18.8043 160.56 21.1123 163.331 21.1123C164.834 21.1123 165.826 20.651 166.842 19.8403C167.118 19.611 167.487 19.4496 167.903 19.4496C168.802 19.4496 169.566 20.1896 169.566 21.0896C169.566 21.643 169.288 22.0816 168.966 22.359C167.511 23.627 165.802 24.3896 163.216 24.3896C158.46 24.3896 154.927 20.719 154.927 16.079Z" fill="#FAFDF7"/>
<path d="M170.581 17.186V9.59128C170.581 8.59794 171.367 7.81128 172.357 7.81128C173.351 7.81128 174.138 8.59794 174.138 9.59128V17.0953C174.138 19.7273 175.45 21.09 177.622 21.09C179.794 21.09 181.109 19.7713 181.109 17.21V9.59128C181.109 8.59794 181.893 7.81128 182.887 7.81128C183.881 7.81128 184.666 8.59794 184.666 9.59128V17.0713C184.666 21.966 181.917 24.3673 177.575 24.3673C173.234 24.3673 170.581 21.942 170.581 17.186Z" fill="#FAFDF7"/>
<path d="M186.443 22.3355V9.72742C186.443 8.73409 187.227 7.95142 188.219 7.95142H197.18C198.057 7.95142 198.771 8.66742 198.771 9.54342C198.771 10.4195 198.057 11.1128 197.18 11.1128H189.973V14.3928H196.137C197.016 14.3928 197.732 15.1088 197.732 15.9848C197.732 16.8621 197.016 17.5555 196.137 17.5555H189.973V20.9488H197.295C198.172 20.9488 198.888 21.6661 198.888 22.5421C198.888 23.4195 198.172 24.1128 197.295 24.1128H188.219C187.227 24.1128 186.443 23.3275 186.443 22.3355Z" fill="#FAFDF7"/>
<path d="M89.371 39.0297C89.371 39.3276 89.3627 39.5552 89.3462 39.7125H83.7223C83.7471 40.2256 83.8712 40.6643 84.0947 41.0284C84.3182 41.3926 84.612 41.6699 84.9762 41.8602C85.3403 42.0423 85.7376 42.1333 86.168 42.1333C86.7308 42.1333 87.2025 41.9968 87.5833 41.7237C87.9723 41.4505 88.2288 41.0822 88.353 40.6187H89.2717C89.1061 41.2809 88.7503 41.823 88.204 42.2451C87.666 42.6589 86.9874 42.8658 86.168 42.8658C85.5307 42.8658 84.9596 42.7251 84.4547 42.4437C83.9499 42.154 83.5526 41.7485 83.2629 41.2271C82.9815 40.6974 82.8408 40.0808 82.8408 39.3773C82.8408 38.6738 82.9815 38.0572 83.2629 37.5275C83.5443 36.9978 83.9375 36.5922 84.4423 36.3108C84.9472 36.0294 85.5224 35.8887 86.168 35.8887C86.8135 35.8887 87.3764 36.0294 87.8564 36.3108C88.3447 36.5922 88.7171 36.9729 88.9737 37.453C89.2386 37.9247 89.371 38.4503 89.371 39.0297ZM88.4895 39.0048C88.4978 38.5 88.3944 38.0696 88.1792 37.7137C87.9723 37.3578 87.6867 37.0888 87.3226 36.9067C86.9584 36.7246 86.5611 36.6336 86.1307 36.6336C85.4852 36.6336 84.9348 36.8405 84.4796 37.2543C84.0244 37.6682 83.7719 38.2517 83.7223 39.0048H88.4895Z" fill="#FAFDF7"/>
<path d="M93.4936 41.9221L95.7779 35.9878H96.6966L93.9777 42.7663H92.997L90.2781 35.9878H91.2093L93.4936 41.9221Z" fill="#FAFDF7"/>
<path d="M104.131 39.0297C104.131 39.3276 104.123 39.5552 104.107 39.7125H98.4828C98.5076 40.2256 98.6317 40.6643 98.8552 41.0284C99.0787 41.3926 99.3725 41.6699 99.7366 41.8602C100.101 42.0423 100.498 42.1333 100.928 42.1333C101.491 42.1333 101.963 41.9968 102.344 41.7237C102.733 41.4505 102.989 41.0822 103.113 40.6187H104.032C103.867 41.2809 103.511 41.823 102.964 42.2451C102.427 42.6589 101.748 42.8658 100.928 42.8658C100.291 42.8658 99.7201 42.7251 99.2152 42.4437C98.7104 42.154 98.3131 41.7485 98.0234 41.2271C97.742 40.6974 97.6013 40.0808 97.6013 39.3773C97.6013 38.6738 97.742 38.0572 98.0234 37.5275C98.3048 36.9978 98.6979 36.5922 99.2028 36.3108C99.7077 36.0294 100.283 35.8887 100.928 35.8887C101.574 35.8887 102.137 36.0294 102.617 36.3108C103.105 36.5922 103.478 36.9729 103.734 37.453C103.999 37.9247 104.131 38.4503 104.131 39.0297ZM103.25 39.0048C103.258 38.5 103.155 38.0696 102.94 37.7137C102.733 37.3578 102.447 37.0888 102.083 36.9067C101.719 36.7246 101.322 36.6336 100.891 36.6336C100.246 36.6336 99.6953 36.8405 99.2401 37.2543C98.7848 37.6682 98.5324 38.2517 98.4828 39.0048H103.25Z" fill="#FAFDF7"/>
<path d="M106.715 37.1922C106.905 36.7701 107.195 36.4431 107.584 36.2114C107.981 35.9797 108.465 35.8638 109.036 35.8638V36.7701H108.8C108.171 36.7701 107.666 36.9397 107.286 37.2791C106.905 37.6184 106.715 38.1853 106.715 38.9799V42.7664H105.846V35.9879H106.715V37.1922Z" fill="#FAFDF7"/>
<path d="M116.054 35.9878L112.032 45.9569H111.126L112.442 42.7291L109.661 35.9878H110.617L112.926 41.7731L115.16 35.9878H116.054Z" fill="#FAFDF7"/>
<path d="M121.744 37.4778C121.96 37.0226 122.299 36.646 122.762 36.3481C123.234 36.0418 123.793 35.8887 124.438 35.8887C125.051 35.8887 125.601 36.0336 126.09 36.3232C126.586 36.6046 126.971 37.0102 127.244 37.5399C127.526 38.0613 127.666 38.6696 127.666 39.3649C127.666 40.0601 127.526 40.6725 127.244 41.2022C126.971 41.7319 126.586 42.1416 126.09 42.4313C125.601 42.721 125.051 42.8658 124.438 42.8658C123.801 42.8658 123.247 42.7168 122.775 42.4189C122.303 42.1127 121.96 41.7319 121.744 41.2767V45.9695H120.888V35.988H121.744V37.4778ZM126.785 39.3649C126.785 38.802 126.673 38.3179 126.45 37.9123C126.234 37.4985 125.937 37.184 125.556 36.9688C125.175 36.7536 124.745 36.646 124.265 36.646C123.801 36.646 123.375 36.7577 122.986 36.9812C122.605 37.2047 122.303 37.5233 122.08 37.9372C121.856 38.351 121.744 38.831 121.744 39.3773C121.744 39.9235 121.856 40.4036 122.08 40.8174C122.303 41.2312 122.605 41.5499 122.986 41.7733C123.375 41.9968 123.801 42.1085 124.265 42.1085C124.745 42.1085 125.175 42.0009 125.556 41.7857C125.937 41.5623 126.234 41.2436 126.45 40.8298C126.673 40.4077 126.785 39.9194 126.785 39.3649Z" fill="#FAFDF7"/>
<path d="M128.992 39.3649C128.992 38.6696 129.129 38.0613 129.402 37.5399C129.683 37.0102 130.068 36.6046 130.557 36.3232C131.053 36.0336 131.612 35.8887 132.233 35.8887C132.878 35.8887 133.433 36.0377 133.896 36.3356C134.368 36.6336 134.707 37.0143 134.914 37.4778V35.988H135.783V42.7665H134.914V41.2643C134.699 41.7278 134.355 42.1127 133.884 42.4189C133.42 42.7168 132.866 42.8658 132.22 42.8658C131.608 42.8658 131.053 42.721 130.557 42.4313C130.068 42.1416 129.683 41.7319 129.402 41.2022C129.129 40.6725 128.992 40.0601 128.992 39.3649ZM134.914 39.3773C134.914 38.831 134.802 38.351 134.579 37.9372C134.355 37.5233 134.049 37.2047 133.66 36.9812C133.279 36.7577 132.857 36.646 132.394 36.646C131.914 36.646 131.483 36.7536 131.103 36.9688C130.722 37.184 130.42 37.4985 130.196 37.9123C129.981 38.3179 129.874 38.802 129.874 39.3649C129.874 39.9194 129.981 40.4077 130.196 40.8298C130.42 41.2436 130.722 41.5623 131.103 41.7857C131.483 42.0009 131.914 42.1085 132.394 42.1085C132.857 42.1085 133.279 41.9968 133.66 41.7733C134.049 41.5499 134.355 41.2312 134.579 40.8174C134.802 40.4036 134.914 39.9235 134.914 39.3773Z" fill="#FAFDF7"/>
<path d="M146.83 35.9878L144.707 42.7663H143.838L141.963 37.0803L140.089 42.7663H139.207L137.084 35.9878H137.966L139.654 41.8849L141.554 35.9878H142.423L144.297 41.8973L145.973 35.9878H146.83Z" fill="#FAFDF7"/>
<path d="M159.739 35.8638C160.534 35.8638 161.179 36.1162 161.676 36.6211C162.181 37.1177 162.433 37.8419 162.433 38.7937V42.7664H161.577V38.893C161.577 38.1564 161.399 37.5936 161.043 37.2046C160.687 36.8156 160.203 36.6211 159.59 36.6211C158.953 36.6211 158.444 36.8321 158.063 37.2542C157.683 37.6763 157.492 38.2888 157.492 39.0916V42.7664H156.636V38.893C156.636 38.1564 156.458 37.5936 156.102 37.2046C155.746 36.8156 155.258 36.6211 154.637 36.6211C154 36.6211 153.491 36.8321 153.11 37.2542C152.729 37.6763 152.539 38.2888 152.539 39.0916V42.7664H151.67V35.9879H152.539V37.1549C152.754 36.7328 153.06 36.4142 153.457 36.199C153.855 35.9755 154.297 35.8638 154.786 35.8638C155.373 35.8638 155.887 36.0045 156.325 36.2859C156.772 36.5673 157.095 36.9811 157.294 37.5274C157.476 36.9894 157.786 36.5797 158.225 36.2983C158.672 36.0086 159.176 35.8638 159.739 35.8638Z" fill="#FAFDF7"/>
<path d="M164.09 39.3649C164.09 38.6696 164.227 38.0613 164.5 37.5399C164.781 37.0102 165.166 36.6046 165.654 36.3232C166.151 36.0336 166.71 35.8887 167.33 35.8887C167.976 35.8887 168.531 36.0377 168.994 36.3356C169.466 36.6336 169.805 37.0143 170.012 37.4778V35.988H170.881V42.7665H170.012V41.2643C169.797 41.7278 169.453 42.1127 168.982 42.4189C168.518 42.7168 167.964 42.8658 167.318 42.8658C166.706 42.8658 166.151 42.721 165.654 42.4313C165.166 42.1416 164.781 41.7319 164.5 41.2022C164.227 40.6725 164.09 40.0601 164.09 39.3649ZM170.012 39.3773C170.012 38.831 169.9 38.351 169.677 37.9372C169.453 37.5233 169.147 37.2047 168.758 36.9812C168.377 36.7577 167.955 36.646 167.492 36.646C167.012 36.646 166.581 36.7536 166.201 36.9688C165.82 37.184 165.518 37.4985 165.294 37.9123C165.079 38.3179 164.972 38.802 164.972 39.3649C164.972 39.9194 165.079 40.4077 165.294 40.8298C165.518 41.2436 165.82 41.5623 166.201 41.7857C166.581 42.0009 167.012 42.1085 167.492 42.1085C167.955 42.1085 168.377 41.9968 168.758 41.7733C169.147 41.5499 169.453 41.2312 169.677 40.8174C169.9 40.4036 170.012 39.9235 170.012 39.3773Z" fill="#FAFDF7"/>
<path d="M174.119 36.7204V40.929C174.119 41.3428 174.198 41.6284 174.355 41.7856C174.512 41.9429 174.789 42.0215 175.187 42.0215H175.981V42.7664H175.05C174.438 42.7664 173.982 42.6257 173.684 42.3443C173.386 42.0546 173.237 41.5829 173.237 40.929V36.7204H172.294V35.9879H173.237V34.2871H174.119V35.9879H175.981V36.7204H174.119Z" fill="#FAFDF7"/>
<path d="M178.668 36.7204V40.929C178.668 41.3428 178.747 41.6284 178.904 41.7856C179.061 41.9429 179.339 42.0215 179.736 42.0215H180.53V42.7664H179.599C178.987 42.7664 178.532 42.6257 178.234 42.3443C177.936 42.0546 177.787 41.5829 177.787 40.929V36.7204H176.843V35.9879H177.787V34.2871H178.668V35.9879H180.53V36.7204H178.668Z" fill="#FAFDF7"/>
<path d="M188.221 39.0297C188.221 39.3276 188.212 39.5552 188.196 39.7125H182.572C182.597 40.2256 182.721 40.6643 182.944 41.0284C183.168 41.3926 183.462 41.6699 183.826 41.8602C184.19 42.0423 184.587 42.1333 185.018 42.1333C185.581 42.1333 186.052 41.9968 186.433 41.7237C186.822 41.4505 187.079 41.0822 187.203 40.6187H188.121C187.956 41.2809 187.6 41.823 187.054 42.2451C186.516 42.6589 185.837 42.8658 185.018 42.8658C184.38 42.8658 183.809 42.7251 183.304 42.4437C182.8 42.154 182.402 41.7485 182.113 41.2271C181.831 40.6974 181.691 40.0808 181.691 39.3773C181.691 38.6738 181.831 38.0572 182.113 37.5275C182.394 36.9978 182.787 36.5922 183.292 36.3108C183.797 36.0294 184.372 35.8887 185.018 35.8887C185.663 35.8887 186.226 36.0294 186.706 36.3108C187.194 36.5922 187.567 36.9729 187.823 37.453C188.088 37.9247 188.221 38.4503 188.221 39.0297ZM187.339 39.0048C187.348 38.5 187.244 38.0696 187.029 37.7137C186.822 37.3578 186.536 37.0888 186.172 36.9067C185.808 36.7246 185.411 36.6336 184.98 36.6336C184.335 36.6336 183.785 36.8405 183.329 37.2543C182.874 37.6682 182.622 38.2517 182.572 39.0048H187.339Z" fill="#FAFDF7"/>
<path d="M190.804 37.1922C190.994 36.7701 191.284 36.4431 191.673 36.2114C192.07 35.9797 192.554 35.8638 193.125 35.8638V36.7701H192.89C192.261 36.7701 191.756 36.9397 191.375 37.2791C190.994 37.6184 190.804 38.1853 190.804 38.9799V42.7664H189.935V35.9879H190.804V37.1922Z" fill="#FAFDF7"/>
<path d="M196.891 42.8658C196.113 42.8658 195.476 42.6879 194.979 42.332C194.491 41.9678 194.218 41.4754 194.16 40.8546H195.053C195.095 41.2353 195.273 41.5457 195.587 41.7857C195.91 42.0175 196.34 42.1333 196.878 42.1333C197.35 42.1333 197.719 42.0216 197.983 41.7981C198.257 41.5747 198.393 41.2974 198.393 40.9664C198.393 40.7346 198.319 40.5443 198.17 40.3953C198.021 40.2463 197.83 40.1304 197.599 40.0477C197.375 39.9566 197.069 39.8614 196.68 39.7621C196.175 39.6297 195.765 39.4973 195.451 39.3649C195.136 39.2324 194.867 39.0379 194.644 38.7814C194.429 38.5165 194.321 38.1648 194.321 37.7261C194.321 37.395 194.42 37.0888 194.619 36.8074C194.818 36.526 195.099 36.3025 195.463 36.137C195.827 35.9715 196.241 35.8887 196.705 35.8887C197.433 35.8887 198.021 36.0749 198.468 36.4474C198.914 36.8115 199.155 37.3164 199.188 37.962H198.319C198.294 37.5647 198.136 37.2461 197.847 37.006C197.565 36.7577 197.176 36.6336 196.68 36.6336C196.241 36.6336 195.885 36.7371 195.612 36.944C195.339 37.1509 195.202 37.4075 195.202 37.7137C195.202 37.9785 195.281 38.1979 195.438 38.3717C195.604 38.5372 195.807 38.6696 196.047 38.7689C196.287 38.86 196.609 38.9634 197.015 39.0793C197.503 39.2117 197.892 39.34 198.182 39.4642C198.472 39.5883 198.72 39.7704 198.927 40.0104C199.134 40.2504 199.241 40.5691 199.25 40.9664C199.25 41.3305 199.15 41.6574 198.952 41.9471C198.753 42.2285 198.476 42.452 198.12 42.6175C197.764 42.7831 197.354 42.8658 196.891 42.8658Z" fill="#FAFDF7"/>
</g>
<defs>
<clipPath id="clip0_704_278">
<rect width="200" height="46" fill="white"/>
</clipPath>
</defs>
</svg>
