<svg width="200" height="46" viewBox="0 0 200 46" fill="none" xmlns="http://www.w3.org/2000/svg">
<path d="M26.3933 16.9173C25.2573 18.6066 23.456 19.3866 22.3653 18.6533C21.276 17.9213 21.312 15.956 22.448 14.2666C23.584 12.576 25.3853 11.7973 26.476 12.5293C27.568 13.2626 27.5293 15.224 26.3933 16.9173ZM22.82 25.3346C21.0813 25.8893 19.5107 23.9613 17.6013 24.0693C17.596 24.0693 17.5907 24.0693 17.5867 24.072H17.568C15.656 24.1066 14.2347 26.1453 12.4613 25.7226C10.6827 25.3026 10.0467 22.98 12.812 20.168C14.6987 18.2493 15.1227 16.2053 17.284 16.0653C19.4507 16.0413 20.0267 18.0493 22.052 19.82C25.0213 22.4186 24.56 24.7826 22.82 25.3346ZM8.26266 17.5986C7.00532 15.996 6.81999 14.0413 7.85199 13.228C8.88532 12.4173 10.7427 13.0573 12 14.6586C13.26 16.26 13.4453 18.2146 12.412 19.0266C11.38 19.8373 9.52399 19.1973 8.26266 17.5986ZM13.232 7.07334C14.5867 6.77867 16.052 8.244 16.5107 10.344C16.964 12.4426 16.2373 14.3813 14.8827 14.6733C13.5293 14.968 12.0653 13.5053 11.6093 11.404C11.1533 9.30933 11.88 7.368 13.232 7.07334ZM17.6307 10.3C17.9267 8.17334 19.2787 6.60667 20.6507 6.79467C22.0213 6.98667 22.8907 8.86667 22.5933 10.9946C22.3 13.12 20.9453 14.6906 19.576 14.5C18.2027 14.308 17.3333 12.428 17.6307 10.3ZM34.4453 4.352C34.4453 4.352 32.3653 3.73734 26.42 2.208C20.128 0.582667 17.2293 0 17.2293 0C17.2293 0 14.328 0.582667 8.03332 2.208C2.09065 3.73734 0.0106545 4.352 0.0106545 4.352C0.0106545 4.352 -0.297345 10.4786 2.39865 21.5693C4.57599 30.5226 12.696 35.48 17.2293 38.284C21.7627 35.48 29.88 30.5226 32.0573 21.5693C34.7533 10.4786 34.4453 4.352 34.4453 4.352Z" fill="#FEAC1B"/>
<path d="M48.4115 16.1026C50.1902 16.1026 51.2289 15.0399 51.2289 13.6546V13.6079C51.2289 12.0159 50.1196 11.1586 48.3436 11.1586H45.5942V16.1026H48.4115ZM42.0396 9.7279C42.0396 8.73457 42.8263 7.9519 43.8156 7.9519H48.6436C52.4996 7.9519 54.8302 10.2373 54.8302 13.5373V13.5839C54.8302 17.3253 51.9223 19.2653 48.2969 19.2653H45.5942V22.4733C45.5942 23.4666 44.8103 24.2506 43.8156 24.2506C42.8263 24.2506 42.0396 23.4666 42.0396 22.4733V9.7279Z" fill="#FEAC1B"/>
<path d="M63.5574 17.3475L61.3174 12.0155L59.0788 17.3475H63.5574ZM53.5601 21.8275L59.1934 9.10478C59.5854 8.22744 60.3027 7.69678 61.2733 7.69678H61.4788C62.4508 7.69678 63.1427 8.22744 63.536 9.10478L69.1694 21.8275C69.2841 22.0821 69.3547 22.3128 69.3547 22.5421C69.3547 23.4901 68.6148 24.2515 67.6694 24.2515C66.8361 24.2515 66.2841 23.7675 65.9614 23.0288L64.8748 20.4875H57.7627L56.6334 23.1448C56.3308 23.8368 55.7321 24.2515 54.9921 24.2515C54.0681 24.2515 53.3521 23.5115 53.3521 22.5901C53.3521 22.3355 53.4454 22.0821 53.5601 21.8275Z" fill="#FEAC1B"/>
<path d="M67.8987 10.2134C67.828 10.0067 67.76 9.75071 67.76 9.54404C67.76 8.55071 68.592 7.81071 69.584 7.81071C70.4147 7.81071 71.084 8.34404 71.316 9.08138L74.5267 18.988L77.7587 9.17338C78.0347 8.34404 78.6587 7.76538 79.56 7.76538H79.836C80.7373 7.76538 81.36 8.32138 81.636 9.17338L84.8707 18.988L88.0787 9.08138C88.3107 8.38938 88.912 7.81071 89.7867 7.81071C90.7587 7.81071 91.5413 8.55071 91.5413 9.52004C91.5413 9.72804 91.4747 10.0067 91.404 10.2134L86.8773 22.9147C86.5547 23.8134 85.8853 24.3667 85.032 24.3667H84.6613C83.808 24.3667 83.1613 23.8374 82.836 22.9147L79.6507 13.6547L76.464 22.9147C76.1413 23.8374 75.4947 24.3667 74.6413 24.3667H74.2707C73.4173 24.3667 72.748 23.8134 72.4253 22.9147L67.8987 10.2134Z" fill="#FEAC1B"/>
<path d="M121.401 15.8002C123.136 15.8002 124.128 14.8775 124.128 13.5135V13.4682C124.128 11.9442 123.065 11.1589 121.333 11.1589H117.8V15.8002H121.401ZM114.245 9.72693C114.245 8.73359 115.029 7.95093 116.024 7.95093H121.633C123.688 7.95093 125.281 8.52693 126.344 9.59093C127.245 10.4909 127.729 11.7602 127.729 13.2829V13.3295C127.729 15.8709 126.458 17.4402 124.497 18.2482L126.966 21.2495C127.313 21.6882 127.544 22.0575 127.544 22.6122C127.544 23.6069 126.713 24.2509 125.86 24.2509C125.049 24.2509 124.521 23.8589 124.104 23.3282L120.641 18.9402H117.8V22.4735C117.8 23.4669 117.016 24.2509 116.024 24.2509C115.029 24.2509 114.245 23.4669 114.245 22.4735V9.72693Z" fill="#161C1C"/>
<path d="M129.091 22.3355V9.72742C129.091 8.73409 129.875 7.95142 130.867 7.95142H139.828C140.706 7.95142 141.422 8.66742 141.422 9.54342C141.422 10.4195 140.706 11.1128 139.828 11.1128H132.622V14.3928H138.786C139.667 14.3928 140.383 15.1088 140.383 15.9848C140.383 16.8621 139.667 17.5555 138.786 17.5555H132.622V20.9488H139.943C140.82 20.9488 141.536 21.6661 141.536 22.5421C141.536 23.4195 140.82 24.1128 139.943 24.1128H130.867C129.875 24.1128 129.091 23.3275 129.091 22.3355Z" fill="#161C1C"/>
<path d="M142.388 22.4046C141.997 22.1286 141.721 21.6193 141.721 21.0659C141.721 20.1433 142.459 19.4273 143.383 19.4273C143.844 19.4273 144.167 19.5873 144.399 19.7513C145.623 20.6513 146.961 21.2033 148.531 21.2033C149.987 21.2033 150.864 20.6273 150.864 19.6806V19.6339C150.864 18.7339 150.309 18.2713 147.607 17.5793C144.352 16.7486 142.252 15.8473 142.252 12.6379V12.5926C142.252 9.65924 144.604 7.71924 147.909 7.71924C149.869 7.71924 151.579 8.22724 153.033 9.15258C153.427 9.38324 153.82 9.86858 153.82 10.5593C153.82 11.4833 153.079 12.1993 152.156 12.1993C151.809 12.1993 151.533 12.1046 151.255 11.9446C150.079 11.2526 148.971 10.8606 147.861 10.8606C146.5 10.8606 145.784 11.4833 145.784 12.2686V12.3166C145.784 13.3766 146.476 13.7233 149.271 14.4379C152.549 15.2926 154.396 16.4713 154.396 19.2873V19.3326C154.396 22.5433 151.948 24.3433 148.464 24.3433C146.339 24.3433 144.191 23.6979 142.388 22.4046Z" fill="#161C1C"/>
<path d="M92.9116 22.4046C92.5209 22.1286 92.2449 21.6193 92.2449 21.0659C92.2449 20.1433 92.9823 19.4273 93.9063 19.4273C94.3676 19.4273 94.6903 19.5873 94.9223 19.7513C96.1463 20.6513 97.4849 21.2033 99.0543 21.2033C100.51 21.2033 101.388 20.6273 101.388 19.6806V19.6339C101.388 18.7339 100.833 18.2713 98.1303 17.5793C94.8756 16.7486 92.7756 15.8473 92.7756 12.6379V12.5926C92.7756 9.65924 95.1276 7.71924 98.4329 7.71924C100.393 7.71924 102.102 8.22724 103.557 9.15258C103.95 9.38324 104.344 9.86858 104.344 10.5593C104.344 11.4833 103.602 12.1993 102.68 12.1993C102.333 12.1993 102.057 12.1046 101.778 11.9446C100.602 11.2526 99.4943 10.8606 98.3849 10.8606C97.0236 10.8606 96.3076 11.4833 96.3076 12.2686V12.3166C96.3076 13.3766 96.9996 13.7233 99.7943 14.4379C103.073 15.2926 104.92 16.4713 104.92 19.2873V19.3326C104.92 22.5433 102.472 24.3433 98.9876 24.3433C96.8623 24.3433 94.7143 23.6979 92.9116 22.4046Z" fill="#FEAC1B"/>
<path d="M154.927 16.079V16.0323C154.927 11.4363 158.391 7.67236 163.354 7.67236C165.779 7.67236 167.419 8.32169 168.758 9.31369C169.127 9.59102 169.451 10.0977 169.451 10.7216C169.451 11.691 168.667 12.4523 167.695 12.4523C167.211 12.4523 166.888 12.2697 166.632 12.1057C165.64 11.3683 164.602 10.9523 163.331 10.9523C160.607 10.9523 158.643 13.2163 158.643 15.9856V16.0323C158.643 18.8043 160.56 21.1123 163.331 21.1123C164.834 21.1123 165.826 20.651 166.842 19.8403C167.118 19.611 167.487 19.4496 167.903 19.4496C168.802 19.4496 169.566 20.1896 169.566 21.0896C169.566 21.643 169.288 22.0816 168.966 22.359C167.511 23.627 165.802 24.3896 163.216 24.3896C158.46 24.3896 154.927 20.719 154.927 16.079Z" fill="#161C1C"/>
<path d="M170.581 17.186V9.59128C170.581 8.59794 171.367 7.81128 172.357 7.81128C173.351 7.81128 174.138 8.59794 174.138 9.59128V17.0953C174.138 19.7273 175.45 21.09 177.622 21.09C179.794 21.09 181.109 19.7713 181.109 17.21V9.59128C181.109 8.59794 181.893 7.81128 182.887 7.81128C183.881 7.81128 184.666 8.59794 184.666 9.59128V17.0713C184.666 21.966 181.917 24.3673 177.575 24.3673C173.234 24.3673 170.581 21.942 170.581 17.186Z" fill="#161C1C"/>
<path d="M186.443 22.3355V9.72742C186.443 8.73409 187.227 7.95142 188.219 7.95142H197.18C198.057 7.95142 198.771 8.66742 198.771 9.54342C198.771 10.4195 198.057 11.1128 197.18 11.1128H189.973V14.3928H196.137C197.016 14.3928 197.732 15.1088 197.732 15.9848C197.732 16.8621 197.016 17.5555 196.137 17.5555H189.973V20.9488H197.295C198.172 20.9488 198.888 21.6661 198.888 22.5421C198.888 23.4195 198.172 24.1128 197.295 24.1128H188.219C187.227 24.1128 186.443 23.3275 186.443 22.3355Z" fill="#161C1C"/>
<path d="M89.371 37.0297C89.371 37.3276 89.3627 37.5552 89.3462 37.7125H83.7223C83.7471 38.2256 83.8712 38.6643 84.0947 39.0284C84.3182 39.3926 84.612 39.6699 84.9762 39.8602C85.3403 40.0423 85.7376 40.1333 86.168 40.1333C86.7308 40.1333 87.2025 39.9968 87.5833 39.7237C87.9723 39.4505 88.2288 39.0822 88.353 38.6187H89.2717C89.1061 39.2809 88.7503 39.823 88.204 40.2451C87.666 40.6589 86.9874 40.8658 86.168 40.8658C85.5307 40.8658 84.9596 40.7251 84.4547 40.4437C83.9499 40.154 83.5526 39.7485 83.2629 39.2271C82.9815 38.6974 82.8408 38.0808 82.8408 37.3773C82.8408 36.6738 82.9815 36.0572 83.2629 35.5275C83.5443 34.9978 83.9375 34.5922 84.4423 34.3108C84.9472 34.0294 85.5224 33.8887 86.168 33.8887C86.8135 33.8887 87.3764 34.0294 87.8564 34.3108C88.3447 34.5922 88.7171 34.9729 88.9737 35.453C89.2386 35.9247 89.371 36.4503 89.371 37.0297ZM88.4895 37.0048C88.4978 36.5 88.3944 36.0696 88.1792 35.7137C87.9723 35.3578 87.6867 35.0888 87.3226 34.9067C86.9584 34.7246 86.5611 34.6336 86.1307 34.6336C85.4852 34.6336 84.9348 34.8405 84.4796 35.2543C84.0244 35.6682 83.7719 36.2517 83.7223 37.0048H88.4895Z" fill="#161C1C"/>
<path d="M93.4936 39.9221L95.7779 33.9878H96.6966L93.9777 40.7663H92.997L90.2781 33.9878H91.2093L93.4936 39.9221Z" fill="#161C1C"/>
<path d="M104.131 37.0297C104.131 37.3276 104.123 37.5552 104.107 37.7125H98.4828C98.5076 38.2256 98.6317 38.6643 98.8552 39.0284C99.0787 39.3926 99.3725 39.6699 99.7366 39.8602C100.101 40.0423 100.498 40.1333 100.928 40.1333C101.491 40.1333 101.963 39.9968 102.344 39.7237C102.733 39.4505 102.989 39.0822 103.113 38.6187H104.032C103.867 39.2809 103.511 39.823 102.964 40.2451C102.427 40.6589 101.748 40.8658 100.928 40.8658C100.291 40.8658 99.7201 40.7251 99.2152 40.4437C98.7104 40.154 98.3131 39.7485 98.0234 39.2271C97.742 38.6974 97.6013 38.0808 97.6013 37.3773C97.6013 36.6738 97.742 36.0572 98.0234 35.5275C98.3048 34.9978 98.6979 34.5922 99.2028 34.3108C99.7077 34.0294 100.283 33.8887 100.928 33.8887C101.574 33.8887 102.137 34.0294 102.617 34.3108C103.105 34.5922 103.478 34.9729 103.734 35.453C103.999 35.9247 104.131 36.4503 104.131 37.0297ZM103.25 37.0048C103.258 36.5 103.155 36.0696 102.94 35.7137C102.733 35.3578 102.447 35.0888 102.083 34.9067C101.719 34.7246 101.322 34.6336 100.891 34.6336C100.246 34.6336 99.6953 34.8405 99.2401 35.2543C98.7848 35.6682 98.5324 36.2517 98.4828 37.0048H103.25Z" fill="#161C1C"/>
<path d="M106.715 35.1922C106.905 34.7701 107.195 34.4431 107.584 34.2114C107.981 33.9797 108.465 33.8638 109.036 33.8638V34.7701H108.8C108.171 34.7701 107.666 34.9397 107.286 35.2791C106.905 35.6184 106.715 36.1853 106.715 36.9799V40.7664H105.846V33.9879H106.715V35.1922Z" fill="#161C1C"/>
<path d="M116.054 33.9878L112.032 43.9569H111.126L112.442 40.7291L109.661 33.9878H110.617L112.926 39.7731L115.16 33.9878H116.054Z" fill="#161C1C"/>
<path d="M121.744 35.4778C121.96 35.0226 122.299 34.646 122.762 34.3481C123.234 34.0418 123.793 33.8887 124.438 33.8887C125.051 33.8887 125.601 34.0336 126.09 34.3232C126.586 34.6046 126.971 35.0102 127.244 35.5399C127.526 36.0613 127.666 36.6696 127.666 37.3649C127.666 38.0601 127.526 38.6725 127.244 39.2022C126.971 39.7319 126.586 40.1416 126.09 40.4313C125.601 40.721 125.051 40.8658 124.438 40.8658C123.801 40.8658 123.247 40.7168 122.775 40.4189C122.303 40.1127 121.96 39.7319 121.744 39.2767V43.9695H120.888V33.988H121.744V35.4778ZM126.785 37.3649C126.785 36.802 126.673 36.3179 126.45 35.9123C126.234 35.4985 125.937 35.184 125.556 34.9688C125.175 34.7536 124.745 34.646 124.265 34.646C123.801 34.646 123.375 34.7577 122.986 34.9812C122.605 35.2047 122.303 35.5233 122.08 35.9372C121.856 36.351 121.744 36.831 121.744 37.3773C121.744 37.9235 121.856 38.4036 122.08 38.8174C122.303 39.2312 122.605 39.5499 122.986 39.7733C123.375 39.9968 123.801 40.1085 124.265 40.1085C124.745 40.1085 125.175 40.0009 125.556 39.7857C125.937 39.5623 126.234 39.2436 126.45 38.8298C126.673 38.4077 126.785 37.9194 126.785 37.3649Z" fill="#161C1C"/>
<path d="M128.992 37.3649C128.992 36.6696 129.129 36.0613 129.402 35.5399C129.683 35.0102 130.068 34.6046 130.557 34.3232C131.053 34.0336 131.612 33.8887 132.233 33.8887C132.878 33.8887 133.433 34.0377 133.896 34.3356C134.368 34.6336 134.707 35.0143 134.914 35.4778V33.988H135.783V40.7665H134.914V39.2643C134.699 39.7278 134.355 40.1127 133.884 40.4189C133.42 40.7168 132.866 40.8658 132.22 40.8658C131.608 40.8658 131.053 40.721 130.557 40.4313C130.068 40.1416 129.683 39.7319 129.402 39.2022C129.129 38.6725 128.992 38.0601 128.992 37.3649ZM134.914 37.3773C134.914 36.831 134.802 36.351 134.579 35.9372C134.355 35.5233 134.049 35.2047 133.66 34.9812C133.279 34.7577 132.857 34.646 132.394 34.646C131.914 34.646 131.483 34.7536 131.103 34.9688C130.722 35.184 130.42 35.4985 130.196 35.9123C129.981 36.3179 129.874 36.802 129.874 37.3649C129.874 37.9194 129.981 38.4077 130.196 38.8298C130.42 39.2436 130.722 39.5623 131.103 39.7857C131.483 40.0009 131.914 40.1085 132.394 40.1085C132.857 40.1085 133.279 39.9968 133.66 39.7733C134.049 39.5499 134.355 39.2312 134.579 38.8174C134.802 38.4036 134.914 37.9235 134.914 37.3773Z" fill="#161C1C"/>
<path d="M146.83 33.9878L144.707 40.7663H143.838L141.963 35.0803L140.089 40.7663H139.207L137.084 33.9878H137.966L139.654 39.8849L141.554 33.9878H142.423L144.297 39.8973L145.973 33.9878H146.83Z" fill="#161C1C"/>
<path d="M159.739 33.8638C160.534 33.8638 161.179 34.1162 161.676 34.6211C162.181 35.1177 162.433 35.8419 162.433 36.7937V40.7664H161.577V36.893C161.577 36.1564 161.399 35.5936 161.043 35.2046C160.687 34.8156 160.203 34.6211 159.59 34.6211C158.953 34.6211 158.444 34.8321 158.063 35.2542C157.683 35.6763 157.492 36.2888 157.492 37.0916V40.7664H156.636V36.893C156.636 36.1564 156.458 35.5936 156.102 35.2046C155.746 34.8156 155.258 34.6211 154.637 34.6211C154 34.6211 153.491 34.8321 153.11 35.2542C152.729 35.6763 152.539 36.2888 152.539 37.0916V40.7664H151.67V33.9879H152.539V35.1549C152.754 34.7328 153.06 34.4142 153.457 34.199C153.855 33.9755 154.297 33.8638 154.786 33.8638C155.373 33.8638 155.887 34.0045 156.325 34.2859C156.772 34.5673 157.095 34.9811 157.294 35.5274C157.476 34.9894 157.786 34.5797 158.225 34.2983C158.672 34.0086 159.176 33.8638 159.739 33.8638Z" fill="#161C1C"/>
<path d="M164.09 37.3649C164.09 36.6696 164.227 36.0613 164.5 35.5399C164.781 35.0102 165.166 34.6046 165.654 34.3232C166.151 34.0336 166.71 33.8887 167.33 33.8887C167.976 33.8887 168.531 34.0377 168.994 34.3356C169.466 34.6336 169.805 35.0143 170.012 35.4778V33.988H170.881V40.7665H170.012V39.2643C169.797 39.7278 169.453 40.1127 168.982 40.4189C168.518 40.7168 167.964 40.8658 167.318 40.8658C166.706 40.8658 166.151 40.721 165.654 40.4313C165.166 40.1416 164.781 39.7319 164.5 39.2022C164.227 38.6725 164.09 38.0601 164.09 37.3649ZM170.012 37.3773C170.012 36.831 169.9 36.351 169.677 35.9372C169.453 35.5233 169.147 35.2047 168.758 34.9812C168.377 34.7577 167.955 34.646 167.492 34.646C167.012 34.646 166.581 34.7536 166.201 34.9688C165.82 35.184 165.518 35.4985 165.294 35.9123C165.079 36.3179 164.972 36.802 164.972 37.3649C164.972 37.9194 165.079 38.4077 165.294 38.8298C165.518 39.2436 165.82 39.5623 166.201 39.7857C166.581 40.0009 167.012 40.1085 167.492 40.1085C167.955 40.1085 168.377 39.9968 168.758 39.7733C169.147 39.5499 169.453 39.2312 169.677 38.8174C169.9 38.4036 170.012 37.9235 170.012 37.3773Z" fill="#161C1C"/>
<path d="M174.119 34.7204V38.929C174.119 39.3428 174.198 39.6284 174.355 39.7856C174.512 39.9429 174.789 40.0215 175.187 40.0215H175.981V40.7664H175.05C174.438 40.7664 173.982 40.6257 173.684 40.3443C173.386 40.0546 173.237 39.5829 173.237 38.929V34.7204H172.294V33.9879H173.237V32.2871H174.119V33.9879H175.981V34.7204H174.119Z" fill="#161C1C"/>
<path d="M178.668 34.7204V38.929C178.668 39.3428 178.747 39.6284 178.904 39.7856C179.061 39.9429 179.339 40.0215 179.736 40.0215H180.53V40.7664H179.599C178.987 40.7664 178.532 40.6257 178.234 40.3443C177.936 40.0546 177.787 39.5829 177.787 38.929V34.7204H176.843V33.9879H177.787V32.2871H178.668V33.9879H180.53V34.7204H178.668Z" fill="#161C1C"/>
<path d="M188.221 37.0297C188.221 37.3276 188.212 37.5552 188.196 37.7125H182.572C182.597 38.2256 182.721 38.6643 182.944 39.0284C183.168 39.3926 183.462 39.6699 183.826 39.8602C184.19 40.0423 184.587 40.1333 185.018 40.1333C185.581 40.1333 186.052 39.9968 186.433 39.7237C186.822 39.4505 187.079 39.0822 187.203 38.6187H188.121C187.956 39.2809 187.6 39.823 187.054 40.2451C186.516 40.6589 185.837 40.8658 185.018 40.8658C184.38 40.8658 183.809 40.7251 183.304 40.4437C182.8 40.154 182.402 39.7485 182.113 39.2271C181.831 38.6974 181.691 38.0808 181.691 37.3773C181.691 36.6738 181.831 36.0572 182.113 35.5275C182.394 34.9978 182.787 34.5922 183.292 34.3108C183.797 34.0294 184.372 33.8887 185.018 33.8887C185.663 33.8887 186.226 34.0294 186.706 34.3108C187.194 34.5922 187.567 34.9729 187.823 35.453C188.088 35.9247 188.221 36.4503 188.221 37.0297ZM187.339 37.0048C187.348 36.5 187.244 36.0696 187.029 35.7137C186.822 35.3578 186.536 35.0888 186.172 34.9067C185.808 34.7246 185.411 34.6336 184.98 34.6336C184.335 34.6336 183.785 34.8405 183.329 35.2543C182.874 35.6682 182.622 36.2517 182.572 37.0048H187.339Z" fill="#161C1C"/>
<path d="M190.804 35.1922C190.994 34.7701 191.284 34.4431 191.673 34.2114C192.07 33.9797 192.554 33.8638 193.125 33.8638V34.7701H192.89C192.261 34.7701 191.756 34.9397 191.375 35.2791C190.994 35.6184 190.804 36.1853 190.804 36.9799V40.7664H189.935V33.9879H190.804V35.1922Z" fill="#161C1C"/>
<path d="M196.891 40.8658C196.113 40.8658 195.476 40.6879 194.979 40.332C194.491 39.9678 194.218 39.4754 194.16 38.8546H195.053C195.095 39.2353 195.273 39.5457 195.587 39.7857C195.91 40.0175 196.34 40.1333 196.878 40.1333C197.35 40.1333 197.719 40.0216 197.983 39.7981C198.257 39.5747 198.393 39.2974 198.393 38.9664C198.393 38.7346 198.319 38.5443 198.17 38.3953C198.021 38.2463 197.83 38.1304 197.599 38.0477C197.375 37.9566 197.069 37.8614 196.68 37.7621C196.175 37.6297 195.765 37.4973 195.451 37.3649C195.136 37.2324 194.867 37.0379 194.644 36.7814C194.429 36.5165 194.321 36.1648 194.321 35.7261C194.321 35.395 194.42 35.0888 194.619 34.8074C194.818 34.526 195.099 34.3025 195.463 34.137C195.827 33.9715 196.241 33.8887 196.705 33.8887C197.433 33.8887 198.021 34.0749 198.468 34.4474C198.914 34.8115 199.155 35.3164 199.188 35.962H198.319C198.294 35.5647 198.136 35.2461 197.847 35.006C197.565 34.7577 197.176 34.6336 196.68 34.6336C196.241 34.6336 195.885 34.7371 195.612 34.944C195.339 35.1509 195.202 35.4075 195.202 35.7137C195.202 35.9785 195.281 36.1979 195.438 36.3717C195.604 36.5372 195.807 36.6696 196.047 36.7689C196.287 36.86 196.609 36.9634 197.015 37.0793C197.503 37.2117 197.892 37.34 198.182 37.4642C198.472 37.5883 198.72 37.7704 198.927 38.0104C199.134 38.2504 199.241 38.5691 199.25 38.9664C199.25 39.3305 199.15 39.6574 198.952 39.9471C198.753 40.2285 198.476 40.452 198.12 40.6175C197.764 40.7831 197.354 40.8658 196.891 40.8658Z" fill="#161C1C"/>
</svg>
